<svg xmlns="http://www.w3.org/2000/svg" width="1312" height="1001" fill="none"><g clip-path="url(#a)"><path fill="#fff" d="M0 0h1312v1001H0z"/><path fill="url(#b)" d="M0 .004h1312v841.992H0z"/><path fill="url(#c)" d="M0 0h1312v1001H0z"/><ellipse cx="328.894" cy="658.591" fill="url(#d)" fill-opacity=".5" rx="218.298" ry="223.764" transform="rotate(163.599 328.894 658.591)"/><path fill="url(#e)" fill-opacity=".3" d="m1087.31 742.046-7.56-10.386 7.55-10.394-12.22 3.975-7.55-10.386.01 12.843-12.22 3.975 12.22 3.962.01 12.843 7.54-10.394 12.22 3.962z" opacity=".5"/><path fill="url(#f)" fill-opacity=".3" d="M996.649 678.58c33.281-1.41 55.481 23.459 64.711 38.247-4.21 1.403-5.38 3.337-5.95 6.605-36.1-28.151-63.962-18.667-63.962-18.667l17.792-12.161-12.591-14.024z" opacity=".5"/><circle cx="1088.89" cy="269.193" r="4.575" fill="url(#g)" transform="rotate(-23.013 1088.89 269.193)"/><circle cx="1.525" cy="1.525" r="1.525" fill="url(#h)" transform="scale(-1 1) rotate(23.013 -953.188 -2452.302)"/><circle cx="1.525" cy="1.525" r="1.525" fill="url(#i)" transform="scale(-1 1) rotate(23.013 -1186.703 -2312.59)"/><circle cx="1.525" cy="1.525" r="1.525" fill="url(#j)" transform="scale(-1 1) rotate(23.013 -871.124 -2335.283)"/><circle cx="1.525" cy="1.525" r="1.525" fill="url(#k)" transform="scale(-1 1) rotate(23.013 -1341.098 -2386.382)"/><circle cx="1.525" cy="1.525" r="1.525" fill="url(#l)" transform="scale(-1 1) rotate(23.013 -1375.463 -2546.063)"/><path stroke="url(#m)" stroke-width=".314" d="m981.265 156.792 52.475 22.683 55.15 89.718m0 0 15.11 67.903-65.16-.726-41.132-54.486 91.182-12.691z"/><circle cx="1211.78" cy="305.069" r="2.828" fill="url(#n)"/><circle cx="1079.82" cy="624.9" r="2.828" fill="url(#o)"/><circle cx="1189.79" cy="563.95" r="2.828" fill="url(#p)"/><circle cx="1159" cy="738.632" r="2.828" fill="url(#q)"/><circle cx="940.33" cy="717.896" r="2.828" fill="url(#r)"/><circle cx="790.782" cy="663.229" r="2.828" fill="url(#s)"/><circle cx="725.433" cy="770.05" r="2.828" fill="url(#t)"/><circle cx="1156.48" cy="222.126" r="2.828" fill="url(#u)"/><circle cx="886.291" cy="184.425" r="2.828" fill="url(#v)"/><circle cx="923.992" cy="76.349" r="2.828" fill="url(#w)"/><circle cx="738" cy="117.192" r="2.828" fill="url(#x)"/><circle cx="1190.1" cy="127.559" r="7.54" fill="url(#y)"/><circle cx="997.824" cy="474.41" r="7.54" fill="url(#z)"/><circle cx="830.054" cy="728.264" r="7.54" fill="url(#A)"/><circle cx="1153.34" cy="441.421" r="12.253" fill="url(#B)"/></g><defs><radialGradient id="g" cx="0" cy="0" r="1" gradientTransform="rotate(90 409.849 679.042) scale(4.57504)" gradientUnits="userSpaceOnUse"><stop stop-color="#C4C4C4"/><stop offset="1" stop-color="#C4C4C4" stop-opacity="0"/></radialGradient><radialGradient id="h" cx="0" cy="0" r="1" gradientTransform="rotate(90 0 1.525) scale(1.52501)" gradientUnits="userSpaceOnUse"><stop stop-color="#C4C4C4"/><stop offset="1" stop-color="#C4C4C4" stop-opacity="0"/></radialGradient><radialGradient id="i" cx="0" cy="0" r="1" gradientTransform="rotate(90 0 1.525) scale(1.52501)" gradientUnits="userSpaceOnUse"><stop stop-color="#C4C4C4"/><stop offset="1" stop-color="#C4C4C4" stop-opacity="0"/></radialGradient><radialGradient id="j" cx="0" cy="0" r="1" gradientTransform="rotate(90 0 1.525) scale(1.52501)" gradientUnits="userSpaceOnUse"><stop stop-color="#C4C4C4"/><stop offset="1" stop-color="#C4C4C4" stop-opacity="0"/></radialGradient><radialGradient id="k" cx="0" cy="0" r="1" gradientTransform="rotate(90 0 1.525) scale(1.52501)" gradientUnits="userSpaceOnUse"><stop stop-color="#C4C4C4"/><stop offset="1" stop-color="#C4C4C4" stop-opacity="0"/></radialGradient><radialGradient id="l" cx="0" cy="0" r="1" gradientTransform="rotate(90 0 1.525) scale(1.52501)" gradientUnits="userSpaceOnUse"><stop stop-color="#C4C4C4"/><stop offset="1" stop-color="#C4C4C4" stop-opacity="0"/></radialGradient><radialGradient id="n" cx="0" cy="0" r="1" gradientTransform="rotate(90 453.355 758.425) scale(2.82759)" gradientUnits="userSpaceOnUse"><stop stop-color="#C4C4C4"/><stop offset="1" stop-color="#C4C4C4" stop-opacity="0"/></radialGradient><radialGradient id="o" cx="0" cy="0" r="1" gradientTransform="rotate(90 227.46 852.36) scale(2.82759)" gradientUnits="userSpaceOnUse"><stop stop-color="#C4C4C4"/><stop offset="1" stop-color="#C4C4C4" stop-opacity="0"/></radialGradient><radialGradient id="p" cx="0" cy="0" r="1" gradientTransform="rotate(90 312.92 876.87) scale(2.82759)" gradientUnits="userSpaceOnUse"><stop stop-color="#C4C4C4"/><stop offset="1" stop-color="#C4C4C4" stop-opacity="0"/></radialGradient><radialGradient id="q" cx="0" cy="0" r="1" gradientTransform="rotate(90 210.184 948.816) scale(2.82759)" gradientUnits="userSpaceOnUse"><stop stop-color="#C4C4C4"/><stop offset="1" stop-color="#C4C4C4" stop-opacity="0"/></radialGradient><radialGradient id="r" cx="0" cy="0" r="1" gradientTransform="rotate(90 111.217 829.113) scale(2.82759)" gradientUnits="userSpaceOnUse"><stop stop-color="#C4C4C4"/><stop offset="1" stop-color="#C4C4C4" stop-opacity="0"/></radialGradient><radialGradient id="s" cx="0" cy="0" r="1" gradientTransform="rotate(90 63.776 727.006) scale(2.82759)" gradientUnits="userSpaceOnUse"><stop stop-color="#C4C4C4"/><stop offset="1" stop-color="#C4C4C4" stop-opacity="0"/></radialGradient><radialGradient id="t" cx="0" cy="0" r="1" gradientTransform="rotate(90 -22.309 747.741) scale(2.82759)" gradientUnits="userSpaceOnUse"><stop stop-color="#C4C4C4"/><stop offset="1" stop-color="#C4C4C4" stop-opacity="0"/></radialGradient><radialGradient id="u" cx="0" cy="0" r="1" gradientTransform="rotate(90 467.177 689.303) scale(2.82759)" gradientUnits="userSpaceOnUse"><stop stop-color="#C4C4C4"/><stop offset="1" stop-color="#C4C4C4" stop-opacity="0"/></radialGradient><radialGradient id="v" cx="0" cy="0" r="1" gradientTransform="rotate(90 350.933 535.358) scale(2.82759)" gradientUnits="userSpaceOnUse"><stop stop-color="#C4C4C4"/><stop offset="1" stop-color="#C4C4C4" stop-opacity="0"/></radialGradient><radialGradient id="w" cx="0" cy="0" r="1" gradientTransform="rotate(90 423.822 500.17) scale(2.82759)" gradientUnits="userSpaceOnUse"><stop stop-color="#C4C4C4"/><stop offset="1" stop-color="#C4C4C4" stop-opacity="0"/></radialGradient><radialGradient id="x" cx="0" cy="0" r="1" gradientTransform="matrix(0 2.82759 -2.82759 0 738 117.192)" gradientUnits="userSpaceOnUse"><stop stop-color="#C4C4C4"/><stop offset="1" stop-color="#C4C4C4" stop-opacity="0"/></radialGradient><radialGradient id="y" cx="0" cy="0" r="1" gradientTransform="rotate(90 531.27 658.83) scale(7.54023)" gradientUnits="userSpaceOnUse"><stop stop-color="#C4C4C4"/><stop offset="1" stop-color="#C4C4C4" stop-opacity="0"/></radialGradient><radialGradient id="z" cx="0" cy="0" r="1" gradientTransform="rotate(90 261.707 736.117) scale(7.54023)" gradientUnits="userSpaceOnUse"><stop stop-color="#C4C4C4"/><stop offset="1" stop-color="#C4C4C4" stop-opacity="0"/></radialGradient><radialGradient id="A" cx="0" cy="0" r="1" gradientTransform="rotate(90 50.895 779.159) scale(7.54023)" gradientUnits="userSpaceOnUse"><stop stop-color="#C4C4C4"/><stop offset="1" stop-color="#C4C4C4" stop-opacity="0"/></radialGradient><radialGradient id="B" cx="0" cy="0" r="1" gradientTransform="rotate(90 355.96 797.38) scale(12.2529)" gradientUnits="userSpaceOnUse"><stop stop-color="#C4C4C4"/><stop offset="1" stop-color="#C4C4C4" stop-opacity="0"/></radialGradient><linearGradient id="b" x1="1252.62" x2="195.611" y1="733.118" y2="109.542" gradientUnits="userSpaceOnUse"><stop stop-color="#574284"/><stop offset=".552" stop-color="#372857"/><stop offset="1" stop-color="#251E34"/></linearGradient><linearGradient id="c" x1="1252.62" x2="109.28" y1="871.56" y2="304.199" gradientUnits="userSpaceOnUse"><stop stop-color="#5EAAAF"/><stop offset=".58" stop-color="#2F2E6C"/><stop offset="1" stop-color="#251F3E"/></linearGradient><linearGradient id="d" x1="1052.05" x2="-423.53" y1="386.721" y2="986.511" gradientUnits="userSpaceOnUse"><stop offset=".474" stop-color="#F7F7F9" stop-opacity="0"/><stop offset=".816" stop-color="#E0E6F3"/></linearGradient><linearGradient id="e" x1="1075.84" x2="1065.61" y1="729.925" y2="752.496" gradientUnits="userSpaceOnUse"><stop stop-color="#F5F6FD"/><stop offset="1" stop-color="#F5F6FD" stop-opacity="0"/></linearGradient><linearGradient id="f" x1="978.74" x2="1093.74" y1="682.829" y2="706.893" gradientUnits="userSpaceOnUse"><stop offset=".153" stop-color="#FCFCFF" stop-opacity="0"/><stop offset=".586" stop-color="#FCFCFF"/></linearGradient><linearGradient id="m" x1="1019.43" x2="1123.75" y1="251.117" y2="369.657" gradientUnits="userSpaceOnUse"><stop stop-color="#fff"/><stop offset="1" stop-color="#fff" stop-opacity="0"/></linearGradient><clipPath id="a"><path fill="#fff" d="M0 0h1312v1001H0z"/></clipPath></defs></svg>